<?xml version="1.0" encoding="UTF-8" standalone="no"?>
<svg
   xmlns:dc="http://purl.org/dc/elements/1.1/"
   xmlns:cc="http://creativecommons.org/ns#"
   xmlns:rdf="http://www.w3.org/1999/02/22-rdf-syntax-ns#"
   xmlns:svg="http://www.w3.org/2000/svg"
   xmlns="http://www.w3.org/2000/svg"
   xmlns:sodipodi="http://sodipodi.sourceforge.net/DTD/sodipodi-0.dtd"
   xmlns:inkscape="http://www.inkscape.org/namespaces/inkscape"
   version="1.0"
   width="1600"
   height="520"
   viewBox="0 0 1200 390"
   preserveAspectRatio="xMidYMid meet"
   id="svg975"
   sodipodi:docname="agilitynet_logo.svg"
   inkscape:version="0.92.2 (5c3e80d, 2017-08-06)"
   inkscape:export-filename="/home/mbrickman/Desktop/Agilitynet6.png"
   inkscape:export-xdpi="96"
   inkscape:export-ydpi="96">
  <defs
     id="defs979" />
  <sodipodi:namedview
     pagecolor="#ffffff"
     bordercolor="#666666"
     borderopacity="1"
     objecttolerance="10"
     gridtolerance="10"
     guidetolerance="10"
     inkscape:pageopacity="0"
     inkscape:pageshadow="2"
     inkscape:window-width="2318"
     inkscape:window-height="1330"
     id="namedview977"
     showgrid="false"
     inkscape:zoom="0.323312"
     inkscape:cx="711.03146"
     inkscape:cy="-348.29303"
     inkscape:window-x="993"
     inkscape:window-y="458"
     inkscape:window-maximized="0"
     inkscape:current-layer="svg975"
     units="px" />
  <metadata
     id="metadata917">
Created by potrace 1.15, written by Peter Selinger 2001-2017
<rdf:RDF>
  <cc:Work
     rdf:about="">
    <dc:format>image/svg+xml</dc:format>
    <dc:type
       rdf:resource="http://purl.org/dc/dcmitype/StillImage" />
    <dc:title></dc:title>
  </cc:Work>
</rdf:RDF>
</metadata>
  <g
     id="g5592"
     transform="matrix(1.0876677,0,0,1.0924284,892.33068,281.03478)">
    <g
       transform="translate(-20.891166,-99.634794)"
       id="g5577">
      <path
         inkscape:connector-curvature="0"
         id="path4981-9"
         style="font-style:normal;font-variant:normal;font-weight:normal;font-stretch:normal;font-size:medium;line-height:1.25;font-family:'Gentium Basic';-inkscape-font-specification:'Gentium Basic';letter-spacing:0px;word-spacing:0px;fill:#27a32b;fill-opacity:1;stroke:none;stroke-width:18.00419235"
         d="m -658.42025,19.472692 -24.75577,-72.298077 -24.05245,72.298077 z m -53.02798,12.659214 -15.61299,46.979701 q -1.4066,4.360379 3.79773,6.329581 5.20438,1.969202 16.73829,3.235129 v 6.048281 h -58.51361 v -6.048281 q 9.56471,-1.687902 15.19101,-3.516428 5.62631,-1.828578 7.03291,-6.048282 l 52.32466,-158.380671 q 3.23513,-3.516429 8.01753,-6.329582 4.78236,-2.953828 8.43946,-4.92303 l 59.07621,169.633283 q 0.70333,1.969202 1.96926,3.516428 1.26587,1.547227 3.37575,2.672478 2.10988,1.125302 5.34501,1.969202 3.23512,0.843951 7.73618,1.406602 v 6.048281 h -59.35756 v -6.048281 q 10.97131,-0.703275 15.19101,-2.813153 4.21976,-2.109878 2.67253,-6.751557 l -16.03502,-46.979701 z" />
      <g
         id="g5564">
        <path
           d="m -496.38252,10.329958 q 0,-7.4548838 -2.53186,-14.0657649 -2.39117,-6.7516081 -7.3142,-11.6746391 -4.78236,-5.063655 -12.09657,-7.876807 -7.17353,-2.953829 -16.59762,-2.953829 -3.51642,0 -7.8768,1.828578 -4.21976,1.828526 -8.01749,5.345006 -3.79778,3.516428 -6.32963,8.861434 -2.5318,5.3449547 -2.5318,12.2371872 0,7.4548837 2.2505,14.2064408 2.39118,6.610932 7.03291,11.533963 4.78235,4.922979 11.95589,7.876808 7.3142,2.813153 17.30089,2.813153 4.07908,0 8.43946,-1.687903 4.50105,-1.828526 8.01753,-5.344954 3.65711,-3.657104 5.90761,-8.861435 2.39118,-5.204381 2.39118,-12.237238 z m -24.19313,84.957292 q -5.34501,-0.562652 -9.84606,-1.265927 -4.50106,-0.703275 -8.43946,-1.547226 -10.12736,5.48563 -16.03497,9.846013 -5.76698,4.36038 -8.72081,7.73618 -2.95377,3.51643 -3.79772,6.32958 -0.70328,2.81315 -0.70328,5.06371 0,5.9076 3.9384,11.11193 3.93841,5.34501 10.54934,9.14279 6.61088,3.9384 15.33169,6.1889 8.72076,2.39123 18.28552,2.39123 9.42404,0 17.16022,-2.53185 7.73618,-2.53185 13.22181,-7.03291 5.48568,-4.36038 8.43951,-10.54933 3.09446,-6.04829 3.09446,-13.36249 0,-3.93841 -1.82858,-7.31421 -1.82853,-3.23513 -6.61088,-5.90761 -4.78236,-2.67247 -13.08119,-4.782352 -8.15816,-2.109878 -20.958,-3.516428 z m 43.8852,-90.7242737 q 0,10.8306367 -4.92298,19.8327467 -4.78241,8.861434 -12.65922,15.331691 -7.87686,6.329581 -17.86354,9.986685 -9.98669,3.51648 -20.25472,3.51648 h -0.5626 q -6.75161,5.626306 -9.28341,9.424034 -2.53186,3.657104 -2.53186,4.501055 0,1.687902 1.40656,3.375805 1.54727,1.547226 5.48568,3.094452 4.07908,1.406603 11.11193,2.953829 7.03291,1.406551 18.00422,2.672477 15.33169,1.687902 25.31838,5.063707 9.98669,3.375752 15.89434,7.876807 5.90761,4.36038 8.15816,9.424085 2.39118,5.06366 2.39118,9.98669 0,7.73618 -2.95383,14.62841 -2.95383,7.03291 -8.01748,12.94052 -5.06371,5.9076 -11.95594,10.69001 -6.89223,4.78235 -14.76904,8.15811 -7.87686,3.3758 -16.31632,5.20438 -8.43946,1.82852 -16.73824,1.82852 -6.61093,0 -13.64384,-0.98462 -7.03286,-0.8439 -13.92509,-2.81316 -6.89223,-1.9692 -13.08119,-5.06365 -6.04828,-2.95383 -10.68996,-7.31421 -4.64173,-4.21975 -7.45489,-9.70538 -2.67247,-5.34501 -2.67247,-12.23724 0,-3.65711 1.26592,-7.73619 1.40655,-3.9384 5.48563,-8.58008 4.07908,-4.64173 11.39329,-9.98674 7.31421,-5.34495 19.41077,-11.815207 -9.14278,-3.235129 -12.65921,-7.314208 -3.51643,-4.07908 -3.51643,-8.298835 0,-1.125251 0.70328,-2.953777 0.70327,-1.969254 2.81315,-4.641731 2.25055,-2.813153 6.18896,-6.329581 4.07907,-3.51648 10.54933,-8.017484 -7.17353,-1.969253 -13.08119,-5.626357 -5.76698,-3.797728 -9.98668,-9.002059 -4.07908,-5.345006 -6.47026,-11.955938 -2.25055,-6.751557 -2.25055,-14.628365 0,-10.26803658 4.64173,-19.4107708 4.64168,-9.2834612 12.23724,-16.0350182 7.5955,-6.892233 17.30089,-10.830636 9.70538,-4.07908 19.97337,-4.07908 8.43951,0 15.75367,2.391177 7.45488,2.391178 13.50316,6.751557 7.31421,-0.703275 13.22182,-1.828526 5.90765,-1.125251 10.54933,-2.391177 4.78236,-1.265927 8.43946,-2.531854 3.6571,-1.265926 6.61093,-2.391177 l 2.81316,4.219755 q -1.68791,3.938404 -3.23513,7.314208 -1.54723,3.235129 -4.78236,6.751557 -5.345,0.984575 -10.54933,1.547226 -5.06366,0.562652 -11.53392,0.843952 3.65706,5.345006 5.62631,11.3932871 2.10983,6.0482814 2.10983,12.7998382 z"
           style="font-style:normal;font-variant:normal;font-weight:normal;font-stretch:normal;font-size:medium;line-height:1.25;font-family:'Gentium Basic';-inkscape-font-specification:'Gentium Basic';letter-spacing:0px;word-spacing:0px;fill:#27a32b;fill-opacity:1;stroke:none;stroke-width:18.00419235"
           id="path4983-8"
           inkscape:connector-curvature="0" />
        <path
           d="m -442.93257,94.724598 v -6.048281 q 9.56471,-1.969202 14.62837,-4.219755 5.0637,-2.391178 5.0637,-4.36038 V 0.48389677 q 0,-7.17353227 -0.28145,-11.53391177 -0.28145,-4.501055 -2.10988,-6.892232 -1.82858,-2.531854 -5.90765,-3.657104 -3.93841,-1.125251 -11.39324,-1.828578 v -5.626306 q 4.36038,-0.843951 9.14273,-1.969202 4.92303,-1.265927 9.70539,-2.672477 4.78235,-1.547227 9.14273,-3.235129 4.36043,-1.687902 8.01754,-3.375804 h 4.78235 V 80.096182 q 0,1.687902 4.64168,4.219756 4.78236,2.391177 15.05039,4.360379 v 6.048281 z m 45.01045,-177.369415 q 0,3.938404 -1.26593,7.454832 -1.26587,3.51648 -3.51642,6.188957 -2.10988,2.531853 -5.06366,4.07908 -2.95383,1.547226 -6.47026,1.547226 -6.32963,0 -9.14278,-3.516428 -2.67248,-3.516428 -2.67248,-9.986685 0,-3.938456 1.26593,-7.454884 1.26592,-3.516428 3.51643,-6.048282 2.25055,-2.672477 5.0637,-4.079079 2.95378,-1.547227 6.32958,-1.547227 11.95589,0 11.95589,13.36249 z"
           style="font-style:normal;font-variant:normal;font-weight:normal;font-stretch:normal;font-size:medium;line-height:1.25;font-family:'Gentium Basic';-inkscape-font-specification:'Gentium Basic';letter-spacing:0px;word-spacing:0px;fill:#27a32b;fill-opacity:1;stroke:none;stroke-width:18.00419235"
           id="path4985-1"
           inkscape:connector-curvature="0" />
        <path
           d="m -366.13343,94.724598 v -6.048281 q 6.04828,-0.984627 10.12736,-1.969202 4.07908,-1.125251 6.47025,-2.109878 2.39118,-1.125251 3.37581,-2.250501 1.12525,-1.125303 1.12525,-2.250554 v -167.66403 q 0,-6.329581 -0.84395,-9.846061 -0.84395,-3.516431 -3.09445,-5.204331 -2.25056,-1.82853 -6.04829,-2.39118 -3.79778,-0.70327 -9.70538,-1.40655 v -5.6263 q 10.12736,-1.96926 18.56682,-4.36043 8.43946,-2.39118 17.16022,-6.89224 l 5.0637,4.78241 V 80.096182 q 0,2.109878 4.78236,4.36038 4.78235,2.250553 16.31632,4.219755 v 6.048281 z"
           style="font-style:normal;font-variant:normal;font-weight:normal;font-stretch:normal;font-size:medium;line-height:1.25;font-family:'Gentium Basic';-inkscape-font-specification:'Gentium Basic';letter-spacing:0px;word-spacing:0px;fill:#27a32b;fill-opacity:1;stroke:none;stroke-width:18.00419235"
           id="path4987-0"
           inkscape:connector-curvature="0" />
        <path
           id="path5005-7"
           d="m -286.52115,94.724598 v -6.048281 q 9.56471,-1.969202 14.62842,-4.219755 5.06365,-2.391178 5.06365,-4.36038 V 0.48389677 q 0,-7.17353227 -0.28145,-11.53391177 -0.28146,-4.501055 -2.10988,-6.892232 -1.82853,-2.531854 -5.90761,-3.657104 -3.9384,-1.125251 -11.39328,-1.828578 v -5.626306 q 4.36038,-0.843951 9.14273,-1.969202 4.92303,-1.265927 9.70539,-2.672477 4.7824,-1.547227 9.14278,-3.235129 4.36038,-1.687902 8.01749,-3.375804 h 4.78235 V 80.096182 q 0,1.687902 4.64173,4.219756 4.78236,2.391177 15.05034,4.360379 v 6.048281 z"
           style="font-style:normal;font-variant:normal;font-weight:normal;font-stretch:normal;font-size:medium;line-height:1.25;font-family:'Gentium Basic';-inkscape-font-specification:'Gentium Basic';letter-spacing:0px;word-spacing:0px;fill:#27a32b;fill-opacity:1;stroke:none;stroke-width:18.00419235"
           inkscape:connector-curvature="0" />
        <path
           id="path4989-6"
           d="m -241.51065,-82.644817 q 0,3.938404 -1.26593,7.454832 -1.26592,3.51648 -3.51648,6.188957 -2.10982,2.531853 -5.06365,4.07908 -2.95383,1.547226 -6.47026,1.547226 -6.32958,0 -9.14273,-3.516428 -2.67253,-3.516428 -2.67253,-9.986685 0,-3.938456 1.26593,-7.454884 1.26592,-3.516428 3.51642,-6.048282 2.25056,-2.672477 5.06371,-4.079079 2.95383,-1.547227 6.32958,-1.547227 11.95594,0 11.95594,13.36249 z"
           style="font-style:normal;font-variant:normal;font-weight:normal;font-stretch:normal;font-size:medium;line-height:1.25;font-family:'Gentium Basic';-inkscape-font-specification:'Gentium Basic';letter-spacing:0px;word-spacing:0px;fill:#df0118;fill-opacity:1;stroke:none;stroke-width:18.00419235"
           inkscape:connector-curvature="0" />
        <path
           d="m -123.07687,78.267656 q -6.89224,5.063655 -13.64379,9.002059 -6.75156,3.797779 -12.94052,6.470257 -6.04828,2.531853 -11.25261,3.797779 -5.20433,1.406603 -8.86143,1.406603 -4.92303,0 -9.42409,-1.828578 -4.36038,-1.828526 -7.73618,-5.907606 -3.37575,-4.219755 -5.34496,-10.971312 -1.96925,-6.751557 -1.96925,-16.597618 v -86.363842 h -18.14484 l -2.95378,-3.938456 10.97131,-9.424034 h 10.12731 V -70.68893 l 16.73829,-14.628416 4.36038,3.51648 v 45.713774 h 45.99508 l 4.07908,4.07908 q -1.26588,1.969202 -3.23513,4.219703 -1.82853,2.250554 -3.79773,4.219756 -1.9692,1.969202 -3.9384,3.657104 -1.82858,1.547226 -3.23513,2.109826 -3.37581,-1.687851 -10.26804,-3.235129 -6.89223,-1.68785 -18.28552,-1.68785 h -7.31421 v 74.267279 q 0,8.439459 0.70333,14.065765 0.8439,5.626306 2.67248,9.00211 1.82852,3.235129 4.64168,4.641679 2.95383,1.406602 7.17358,1.406602 4.92303,0 12.37786,-1.969201 7.45489,-1.969202 18.42615,-7.59556 z"
           style="font-style:normal;font-variant:normal;font-weight:normal;font-stretch:normal;font-size:medium;line-height:1.25;font-family:'Gentium Basic';-inkscape-font-specification:'Gentium Basic';letter-spacing:0px;word-spacing:0px;fill:#27a32b;fill-opacity:1;stroke:none;stroke-width:18.00419235"
           id="path4991-0"
           inkscape:connector-curvature="0" />
        <path
           d="m 19.972107,-30.03881 q -4.219704,0.984575 -6.892233,1.828526 -2.672477,0.843951 -4.3603789,1.969202 -1.6879021,0.984627 -2.6724773,2.391177 -0.843951,1.265927 -1.5472779,3.375804 L -42.479909,106.25851 q -5.907658,15.61304 -13.221866,26.72498 -7.173532,11.11199 -15.05034,18.14484 -7.736183,7.17359 -15.613042,10.54934 -7.876808,3.3758 -14.909713,3.3758 -5.34501,0 -9.84606,-0.70327 -4.50101,-0.70328 -7.73614,-1.82858 -3.23512,-0.98457 -5.0637,-2.39118 -1.82853,-1.26592 -1.82853,-2.53185 0,-0.8439 1.68785,-3.37575 1.6879,-2.53186 4.21976,-5.62631 2.53185,-2.95383 5.345,-5.76698 2.95383,-2.81315 5.20433,-4.21976 6.75156,3.93846 13.362493,4.21976 6.751557,0.28145 11.955887,-1.6879 2.531853,-0.84395 5.907657,-3.93841 3.375753,-3.09445 6.751557,-7.5955 3.516428,-4.50106 6.751557,-10.26804 3.375804,-5.62631 5.907657,-11.67459 l 4.07908,-9.705383 -46.135748,-118.433828 q -1.26593,-3.938403 -4.92303,-5.907605 -3.65711,-2.109878 -10.69001,-3.657104 v -6.048282 h 54.293904 v 6.048282 q -5.48563,0.703275 -9.00211,1.40655 -3.375753,0.703276 -5.344955,1.828578 -1.828577,0.984575 -2.109877,2.531802 -0.281455,1.547278 0.562599,3.797779 l 34.601839,89.598971 32.491909,-89.598971 q 0.703326,-2.109877 0.140727,-3.516428 -0.422182,-1.547226 -2.391178,-2.531853 -1.828577,-1.125251 -5.345006,-1.828526 -3.375752,-0.843951 -8.580134,-1.687902 v -6.048282 h 46.979701 z"
           style="font-style:normal;font-variant:normal;font-weight:normal;font-stretch:normal;font-size:medium;line-height:1.25;font-family:'Gentium Basic';-inkscape-font-specification:'Gentium Basic';letter-spacing:0px;word-spacing:0px;fill:#27a32b;fill-opacity:1;stroke:none;stroke-width:18.00419235"
           id="path4993-10"
           inkscape:connector-curvature="0" />
        <text
           id="text4964-2"
           y="102.68269"
           x="18.927151"
           style="font-style:normal;font-variant:normal;font-weight:normal;font-stretch:normal;font-size:147.25204468px;line-height:1.25;font-family:Arial;-inkscape-font-specification:Arial;letter-spacing:0px;word-spacing:0px;fill:#0369b1;fill-opacity:1;stroke:none;stroke-width:9.20325279"
           xml:space="preserve"><tspan
             style="font-style:normal;font-variant:normal;font-weight:normal;font-stretch:normal;font-family:'Noto Mono';-inkscape-font-specification:'Noto Mono';fill:#0369b1;fill-opacity:1;stroke-width:9.20325279"
             y="102.68269"
             x="18.927151"
             id="tspan4962-5"
             sodipodi:role="line">net</tspan></text>
      </g>
    </g>
    <path
       inkscape:transform-center-y="-4.8034549"
       inkscape:transform-center-x="-8.7167759"
       d="m 43.771649,-192.86108 c 0.134667,0.34991 -0.162682,0.63275 -0.620867,0.6321 -0.526445,-0.0307 -0.751239,0.28316 -0.564352,0.78274 0.357972,0.95186 -0.157301,1.25923 -1.25991,0.75688 -0.6201,-0.28201 -0.632798,-0.16268 -0.113573,0.61392 0.820229,1.12191 0.537997,1.2847 -1.67954,0.85736 -1.622295,-0.36487 -1.672402,-0.34569 -0.51397,0.30618 2.266913,1.32356 2.398245,1.67447 0.664907,1.46571 -2.211395,-0.2586 -3.113757,0.079 -1.134256,0.48163 l 1.534698,0.28277 -1.334496,0.099 c -1.046481,0.10589 -1.209349,0.28085 -0.71491,0.83902 0.494485,0.55799 0.381373,0.7146 -0.865228,0.89524 l -1.484935,0.15538 1.434136,0.77799 1.434069,0.77793 -1.841604,-0.34031 -1.860487,-0.38921 1.778495,0.93475 c 1.728418,0.95363 1.728418,0.95363 0.469386,0.79598 -1.97313,-0.23328 -1.516247,0.22406 1.408703,1.47328 1.565789,0.67139 2.035406,1.00998 1.220901,0.972 -0.714061,-0.0756 -1.710279,0.0115 -2.16152,0.17995 -0.70201,0.26204 -0.489185,0.52579 1.201907,1.37912 1.139712,0.60225 1.540459,0.90962 0.907929,0.74601 -1.885421,-0.60878 -1.553812,0.12394 0.726149,1.32856 2.3672,1.28609 2.667697,1.63078 1.395886,1.59229 -1.371987,-0.001 -0.846123,0.48792 1.333544,1.2727 2.298985,0.7964 2.410906,1.55558 0.192603,2.04265 -2.287129,0.45569 -1.817318,0.79467 1.584165,1.17896 3.163522,0.3595 4.027716,0.83622 1.96649,0.97872 -1.215445,0.11165 -1.215445,0.11165 0.362959,0.66426 0.907818,0.29006 1.446804,0.65858 1.196071,0.75281 -0.249386,0.0963 -0.0192,0.40712 0.482055,0.67692 0.726528,0.41376 0.782581,0.56473 0.230972,0.77065 -0.382914,0.19875 0.338017,0.44522 1.597123,0.60256 1.208925,0.17688 2.342765,0.60917 2.492824,1.01022 0.148481,0.40186 0.732587,0.58319 1.233249,0.39795 0.501615,-0.18608 1.603919,-0.14273 2.46201,0.16498 1.233211,0.39757 1.446804,0.65858 1.189208,1.49819 -0.326131,0.80813 -0.0015,0.91468 2.041539,0.72299 1.315851,-0.14925 2.825579,-0.0856 3.345273,0.23404 0.500885,0.27011 1.284315,0.376 1.735288,0.20834 0.701862,-0.26205 0.739226,-0.16268 0.236725,0.48305 -0.470615,0.57624 -0.176102,0.75177 1.296254,0.71509 1.5225,-0.0552 1.766675,0.13928 1.521889,0.85921 -0.382526,1.115 -0.382526,1.115 1.922525,1.16676 2.524665,0.0269 7.221819,2.04154 8.242049,3.54562 1.163954,1.73633 -0.03066,3.89677 -2.477975,4.52776 -0.939927,0.2375 -1.654368,0.61902 -1.579283,0.81977 0.07635,0.20028 -1.604534,1.05764 -3.710149,1.84556 -2.456406,0.9194 -3.584686,1.56996 -3.03967,1.65183 0.68283,0.14389 0.594734,0.52039 -0.433519,1.59096 -2.081634,2.3791 -5.952117,9.1425 -5.093646,8.99275 0.638976,-0.12469 0.670132,0.26359 0.05523,1.52246 -0.407996,0.89547 -1.091675,2.12292 -1.574608,2.81807 -0.771611,1.14577 -0.752728,1.19599 0.149634,0.85828 0.751277,-0.28315 0.613998,0.11319 -0.440381,1.42152 -1.460998,1.74692 -1.743765,2.8242 -0.640814,2.4116 0.951858,-0.35797 0.274714,1.0403 -1.30523,2.7744 -0.927996,1.03293 -2.582714,2.10934 -3.986512,2.63455 -2.556774,0.95677 -10.53858,1.31428 -13.933691,0.6415 -3.276098,-0.6603 -3.721198,-0.3219 -9.296474,7.53628 -4.076327,5.75445 -8.095178,9.83005 -10.601891,10.76795 -1.203127,0.45025 -2.494431,1.27603 -2.895759,1.883699 -0.351057,0.588631 -1.159846,1.176927 -1.817742,1.2517 -1.315851,0.149255 -1.692312,0.975996 -2.108682,4.903885 -0.453927,3.827514 0.235192,4.141356 4.947622,2.378023 2.005395,-0.750242 3.885293,-1.224928 4.148114,-0.980521 0.244786,0.194903 0.186462,0.501652 -0.215624,0.650751 -0.851229,0.321136 -0.959614,1.559297 -0.30311,3.313885 0.656281,1.754782 2.052711,2.889693 3.155662,2.477015 0.85134,-0.321136 6.012933,-6.536304 9.204962,-10.988368 0.74,-1.076983 2.608615,-3.262049 4.107059,-4.908719 2.363828,-2.54185 3.454544,-3.29274 6.857448,-4.73751 4.005804,-1.66669 4.12356,-1.65714 10.325449,-1.1203 10.111016,0.90325 13.744773,0.68667 19.622732,-1.16983 5.677328,-1.78133 7.200408,-2.75126 17.468464,-11.05121 6.745101,-5.4957 9.559092,-6.83434 14.865682,-7.16258 7.68752,-0.53316 14.71582,0.83776 21.96822,4.18222 2.75567,1.25482 5.22954,2.21546 5.48039,2.12131 0.249,-0.0963 0.46348,0.16958 0.4944,0.55802 -0.0192,0.40712 1.03297,0.92792 2.37971,1.16726 1.31517,0.30885 2.39886,0.76009 2.43005,1.14807 -0.0115,0.57621 4.17781,1.23716 7.93688,1.20228 5.25007,-0.023 10.2501,-0.86334 14.61169,-2.49531 2.5567,-0.95677 4.69996,-1.64436 4.73733,-1.54414 0.0192,0.0487 0.0687,0.94611 0.10513,1.96101 0.0192,2.33689 1.15624,3.85391 3.15438,4.30634 2.79999,0.60982 14.72948,-0.65336 18.28888,-1.98514 5.73381,-2.08854 9.68023,-1.16465 14.62616,3.50016 1.94708,1.84333 3.57525,2.83444 5.33536,3.26171 4.03397,1.00508 6.25788,1.14481 8.01258,0.48811 1.55411,-0.58142 1.5344,-0.63391 0.60913,-2.34276 -0.59429,-0.97788 -2.85425,-3.50423 -5.08307,-5.64219 -2.21005,-2.08777 -4.00669,-3.98743 -3.89377,-4.14401 0.0744,-0.25668 2.18642,0.0422 3.89642,0.4855 0.11894,0.0115 0.72596,0.87145 1.25163,1.81778 0.79479,1.35994 1.42087,1.81153 2.71144,1.90016 0.90194,0.11971 2.09192,0.70335 2.6052,1.31137 0.53204,0.65823 2.623,2.73338 4.70794,4.63948 3.41828,3.17876 3.85045,3.41718 5.75514,3.16172 1.09658,-0.12431 2.56909,-0.61836 3.21478,-1.03116 1.09052,-0.75124 1.11592,-0.98901 0.17112,-2.75008 -0.58234,-1.0967 -3.14872,-3.67987 -5.82217,-5.93727 -2.65473,-2.20709 -5.55981,-4.7778 -6.47377,-5.69329 -5.40914,-5.29154 -5.2714,-5.22874 -11.94287,-6.10444 -7.28548,-0.98889 -12.4902,-2.98497 -13.29676,-5.14069 -0.76889,-2.05554 1.08945,-7.78025 2.61825,-8.12368 0.82098,-0.2494 1.12823,-0.6506 1.08484,-1.37763 -0.14349,-1.14658 2.16934,-2.29757 4.14263,-2.06441 0.71417,0.0756 1.04636,-0.10551 1.04049,-0.73221 -0.023,-0.67661 0.30963,-0.85736 1.51042,-0.85111 1.03369,0.0115 1.46625,-0.20565 1.59801,-0.76973 0.28891,-1.36557 6.03277,0.5431 9.10079,2.93873 4.5895,3.71226 7.07645,4.09613 9.30845,1.66079 0.47038,-0.57618 0.90931,-1.0832 0.9908,-1.17084 0.0307,-0.0683 -0.85153,-1.05303 -2.05961,-2.14413 -1.20831,-1.09095 -2.09096,-2.07523 -2.04699,-2.26311 0.0618,-0.13813 1.91056,0.37101 4.05887,1.22442 2.1797,0.7845 4.1155,1.37375 4.36573,1.28125 1.00278,-0.37485 3.90586,-3.9191 3.68092,-4.5207 -0.13505,-0.34953 -2.15315,-2.85213 -4.41914,-5.54769 -4.22528,-4.87733 -4.24412,-4.9274 -4.75533,-8.27954 -0.68632,-3.9725 -1.4499,-4.94405 -7.06048,-8.7886 -1.84099,-1.25427 -3.48144,-2.58367 -3.63149,-2.98465 -0.14849,-0.4019 0.49601,-1.72892 1.48678,-2.89963 0.97201,-1.22098 1.67452,-2.39828 1.58079,-2.64902 -0.37486,-1.00273 -3.02567,-0.75296 -6.16507,0.47799 l -3.28994,1.28838 -2.37304,-1.91255 c -1.30856,-1.05338 -2.59238,-1.88769 -2.84296,-1.79384 -0.24939,0.0963 -0.83323,-0.0882 -1.35266,-0.40942 -0.78269,-0.56431 -0.96444,-0.43934 -1.67996,1.31451 -0.45216,1.08335 -0.71655,2.21071 -0.58468,2.56188 0.13467,0.34915 -0.30963,0.85725 -1.00941,1.12065 -0.70201,0.26204 -1.17835,0.66955 -1.08458,0.92025 0.39389,1.05277 -4.28106,2.91632 -10.09579,4.17788 -9.96897,2.0727 -11.16577,2.23476 -14.38593,2.18227 -5.18726,-0.11664 -9.14714,0.45063 -9.28565,1.30258 -0.0821,0.54494 -0.38291,0.65759 -1.03409,0.444 -0.46351,-0.16959 -2.38661,-0.42147 -4.30365,-0.50443 -3.22629,-0.22176 -3.37662,-0.16536 -2.76957,0.69331 0.7509,1.09071 0.3691,1.29076 -2.24373,1.18245 -1.72911,-0.0383 -2.02992,0.0737 -2.41908,1.01935 -0.40762,0.89573 -0.80883,1.04575 -2.03049,0.98858 -2.05486,-0.14541 -3.28937,0.37332 -3.70378,1.55727 -0.26358,0.67008 -1.3228,1.35226 -3.5287,2.17762 -2.90781,1.08792 -3.87253,1.10622 -10.18085,0.43739 -15.62367,-1.58377 -25.12142,-1.45911 -40.071091,0.59117 -2.713092,0.38644 -4.617158,-0.27317 -9.307564,-3.0328 -1.578017,-1.0098 -7.183259,-3.77046 -12.506609,-6.23642 -5.254519,-2.43462 -10.346051,-5.04458 -11.354201,-5.75323 -2.172908,-1.53029 -5.46535,-5.44202 -7.968379,-9.53481 -1.026333,-1.67345 -2.127825,-3.09017 -2.434805,-3.14684 -0.307322,-0.0575 -0.569875,-0.30157 -0.645116,-0.50138 -0.319217,-1.30949 -0.723611,-1.78686 -1.427311,-1.52347 -0.450936,0.1692 -0.695491,-0.023 -0.626048,-0.45154 0.11664,-0.44549 6.55e-4,-0.45769 -0.357198,-0.0345 -0.275868,0.33188 -0.764628,0.40036 -1.165457,0.0932 -0.488456,-0.38874 -0.638746,-0.33265 -0.488843,0.0687 z"
       id="path919-2-8-7-9"
       inkscape:connector-curvature="0"
       style="fill:#cccccc;stroke:none;stroke-width:0.05352785" />
  </g>
</svg>
