<?xml version="1.0" encoding="UTF-8" standalone="no"?>
<!-- Generator: Adobe Illustrator 20.1.0, SVG Export Plug-In . SVG Version: 6.00 Build 0)  -->

<svg
   xmlns:dc="http://purl.org/dc/elements/1.1/"
   xmlns:cc="http://creativecommons.org/ns#"
   xmlns:rdf="http://www.w3.org/1999/02/22-rdf-syntax-ns#"
   xmlns:svg="http://www.w3.org/2000/svg"
   xmlns="http://www.w3.org/2000/svg"
   xmlns:sodipodi="http://sodipodi.sourceforge.net/DTD/sodipodi-0.dtd"
   xmlns:inkscape="http://www.inkscape.org/namespaces/inkscape"
   version="1.1"
   x="0px"
   y="0px"
   viewBox="0 0 750.00005 236.9475"
   enable-background="new 0 0 595.3 524.5"
   xml:space="preserve"
   id="svg2"
   inkscape:version="0.92.3 (2405546, 2018-03-11)"
   sodipodi:docname="full_logo.svg"
   width="800"
   height="252.744"
   inkscape:export-filename="/home/mbrickman/Desktop/Agility Plaza Facebook.png"
   inkscape:export-xdpi="90"
   inkscape:export-ydpi="90"><metadata
     id="metadata99"><rdf:RDF><cc:Work
         rdf:about=""><dc:format>image/svg+xml</dc:format><dc:type
           rdf:resource="http://purl.org/dc/dcmitype/StillImage" /><dc:title></dc:title></cc:Work></rdf:RDF></metadata><defs
     id="defs97" /><sodipodi:namedview
     pagecolor="#ffffff"
     bordercolor="#666666"
     borderopacity="1"
     objecttolerance="10"
     gridtolerance="10"
     guidetolerance="10"
     inkscape:pageopacity="1"
     inkscape:pageshadow="2"
     inkscape:window-width="3084"
     inkscape:window-height="1048"
     id="namedview95"
     showgrid="false"
     inkscape:zoom="1.8982684"
     inkscape:cx="306.748"
     inkscape:cy="231"
     inkscape:window-x="627"
     inkscape:window-y="686"
     inkscape:window-maximized="0"
     inkscape:current-layer="svg2" /><g
     id="Layer_1"
     transform="translate(0,-287.5525)" /><g
     id="g4589"
     transform="matrix(1.2697137,0,0,1.2697137,-11.903573,-6.513863)"><g
       transform="matrix(2.0066149,0,0,2.0066149,-250.28095,-611.7035)"
       id="g3308"><circle
         style="fill:#52bcbc"
         id="circle34"
         r="46.5"
         cy="353.89999"
         cx="175.89999" /><path
         style="fill:#ffffff"
         inkscape:connector-curvature="0"
         id="path83"
         d="M 178.1,338.5 160.3,375 c -0.7,1.3 -2.3,1.9 -3.6,1.3 v 0 c -1.3,-0.7 -1.9,-2.3 -1.3,-3.6 l 17.8,-36.5 c 0.7,-1.3 2.3,-1.9 3.6,-1.3 v 0 c 1.4,0.6 1.9,2.2 1.3,3.6 z" /><path
         style="fill:#ffffff"
         inkscape:connector-curvature="0"
         id="path85"
         d="m 178.3,336.3 17.8,36.5 c 0.7,1.3 0.1,3 -1.2,3.6 v 0 c -1.3,0.7 -3,0.1 -3.6,-1.2 l -17.8,-36.5 c -0.7,-1.3 -0.1,-3 1.2,-3.6 v 0 c 1.3,-0.7 3,-0.1 3.6,1.2 z" /><path
         inkscape:connector-curvature="0"
         id="path93"
         d="m 193.8,347.3 c 0.6,-0.1 1.2,-0.1 1.8,-0.2 -5.2,0.2 -10.6,1 -15.8,2.7 l -1.9,0.7 c -0.6,0.2 -1.3,0.4 -1.9,0.7 -0.6,0.3 -1.2,0.6 -1.8,0.8 -0.6,0.3 -1.2,0.6 -1.8,0.8 -2.2,1.1 -4.5,2.1 -6.7,2.9 -0.6,0.2 -1.7,0.5 -2.3,0.7 -4.5,1.5 -10.1,3.2 -14.7,4.2 -2.3,0.5 -4,1.3 -4,1.3 -0.6,0.2 -1.1,0.5 -0.5,0.5 1.2,-0.1 4.1,-0.6 4.2,-0.4 0,0.1 -0.6,0.2 -1.2,0.3 0,0.2 -1.7,0.9 -2.3,1 -0.6,0.2 -4.2,0.9 -4.8,1 -0.9,0.1 0,0.3 1.5,0.5 1.5,0.1 3.5,0.1 4.7,0 1.2,-0.1 0,0.3 0.1,0.4 1.2,-0.3 1.9,-0.2 3.1,-0.5 0,0 0.2,0 0.6,-0.1 0.4,-0.1 0.9,-0.1 1.5,-0.3 1.1,-0.2 2.5,-0.5 3.4,-0.8 0,0 0.2,0 0.5,-0.2 0.4,-0.1 1,-0.3 1.9,-0.5 0.6,-0.2 0.6,-0.2 0.6,-0.3 0,0.1 0,0.1 0,0.1 0.6,-0.3 1.8,-0.5 2.4,-0.8 0,0.1 0,0.1 0,0.1 1.1,-0.5 2.4,-0.8 3.5,-1.3 0,0 0,0 0,0.1 0.6,-0.2 1.2,-0.4 1.2,-0.4 0,0 0,0 0,0.1 0.6,-0.2 1.7,-0.7 1.7,-0.6 0,0 0,0 0,-0.1 0.6,-0.2 1.1,-0.4 1.6,-0.7 0.5,-0.2 1,-0.4 1.5,-0.6 0.9,-0.4 1.8,-0.7 2.6,-1.2 0.6,-0.3 1.2,-0.5 1.7,-0.8 0.3,-0.1 0.6,-0.3 0.9,-0.4 0.3,-0.1 0.6,-0.3 0.9,-0.4 1.2,-0.5 2.3,-1.1 3.6,-1.5 1.2,-0.5 2.5,-1 3.8,-1.3 0.6,-0.2 1.3,-0.4 1.9,-0.6 0.6,-0.2 1.3,-0.3 1.9,-0.4 0.6,-0.1 1.1,-0.3 0.5,-0.3 0.6,-0.1 1.1,-0.2 1.7,-0.3 1.2,-0.2 0.6,-0.2 1.7,-0.4 4.7,-0.7 9.4,-0.9 14.2,-0.7 4.7,0.2 9.6,0.7 14.2,1.4 -2.3,-0.5 -4.1,-0.8 -6.4,-1 0,-0.1 0,-0.2 -0.6,-0.2 -3.6,-0.4 -7.7,-0.5 -9.5,-0.7 -0.6,-0.1 -1.2,-0.2 -3,-0.2 h 1.8 c 0,-0.1 0,-0.2 0,-0.2 -1.2,0 -2.5,0 -3.9,0 -1.4,0 -2.7,0.1 -3.9,0.2 0,0 0,-0.1 0,-0.2 l -1.2,0.1 c -0.6,-0.1 0.7,-0.3 2.6,-0.5 0.9,-0.1 2,-0.2 3,-0.2 1,-0.1 2,-0.1 2.8,-0.1 0,-0.1 0,-0.2 0,-0.2 0,0 -0.3,0 -0.6,0 -0.3,0 -0.6,0 -0.6,0 v -0.1 c 3.6,0 6.7,0 10.3,0.3 -0.6,0 -1.8,-0.1 -2.4,-0.2 0,-0.1 0,-0.1 -0.6,-0.1 2.4,0.1 5.4,0.4 7.9,0.6 0.6,0 0,-0.2 -1.8,-0.5 -1.8,-0.2 -3,-0.3 -4.8,-0.4 v -0.1 c 1.2,0.1 3,0.3 4.2,0.3 0.6,0 -1.2,-0.3 -0.6,-0.3 0.6,0.1 1.2,0.1 1.8,0.1 -1.8,-0.2 -4.3,-0.4 -6.1,-0.5 -0.6,-0.1 -1.2,-0.2 -1.2,-0.3 -3.1,-0.1 -5.5,-0.2 -7.4,-0.4 -0.3,0 -1.2,0 -2.3,0 -1,0.4 -2.2,0.5 -3.2,0.6 z" /></g><g
       transform="translate(84.761448,-26.392612)"
       id="g4566"><g
   id="g3354"
   transform="matrix(2.0066149,0,0,2.0066149,-367.61262,-611.7035)"><path
     inkscape:connector-curvature="0"
     id="path38"
     d="m 244.1,367.2 7.2,-20.7 h 2 l 7.2,20.7 h -3.1 l -1.7,-5.4 H 249 l -1.7,5.4 z m 8.2,-16 -2.6,8 h 5.1 z" /><path
     inkscape:connector-curvature="0"
     id="path40"
     d="m 263.4,357.1 c 0,-5.8 2,-10.5 8.1,-10.5 2.7,0 4.7,0.6 5.9,1.2 v 2.9 c -2.4,-1 -4,-1.4 -5.9,-1.4 -3.9,0 -5.2,3.4 -5.2,7.8 0,4.4 1.3,7.8 5.2,7.8 1.2,0 2.7,-0.1 3.6,-0.4 v -5.7 h -4 v -2.7 h 6.8 v 10.3 c -1.5,0.7 -3.6,1.3 -6.4,1.3 -6.2,-0.1 -8.1,-4.9 -8.1,-10.6 z" /><path
     inkscape:connector-curvature="0"
     id="path42"
     d="m 283.2,367.2 v -20.4 h 2.9 v 20.4 z" /><path
     inkscape:connector-curvature="0"
     id="path44"
     d="m 294.1,364.5 h 8.9 v 2.7 h -11.8 v -20.4 h 2.9 z" /><path
     inkscape:connector-curvature="0"
     id="path46"
     d="m 307.3,367.2 v -20.4 h 2.9 v 20.4 z" /><path
     inkscape:connector-curvature="0"
     id="path48"
     d="m 322.4,349.6 v 17.7 h -2.9 v -17.7 h -5.4 v -2.7 h 13.6 v 2.7 z" /><path
     inkscape:connector-curvature="0"
     id="path50"
     d="m 340.2,358.9 v 8.4 h -2.8 v -8.4 l -7.4,-12 h 3.4 l 5.4,9.5 5.4,-9.5 h 3.4 z" /><path
     inkscape:connector-curvature="0"
     id="path52"
     d="m 359.3,367.2 h -2.9 v -20.4 h 6.5 c 5.2,0 7,3 7,6.3 0,3.3 -1.8,6.3 -7,6.3 h -3.6 z m 0,-10.4 h 3.7 c 3.2,0 3.8,-2 3.8,-3.6 0,-1.6 -0.6,-3.6 -3.8,-3.6 h -3.7 z" /><path
     inkscape:connector-curvature="0"
     id="path54"
     d="m 376.2,364.5 h 8.9 v 2.7 h -11.8 v -20.4 h 2.9 z" /><path
     inkscape:connector-curvature="0"
     id="path56"
     d="m 387.6,367.2 7.2,-20.7 h 2 l 7.2,20.7 h -3.1 l -1.7,-5.4 h -6.7 l -1.7,5.4 z m 8.2,-16 -2.6,8 h 5.1 z" /><path
     inkscape:connector-curvature="0"
     id="path58"
     d="m 406.5,367.2 v -1.8 L 417,349.6 h -10 v -2.7 h 13.8 v 1.8 l -10.5,15.8 h 10.9 v 2.7 z" /><path
     inkscape:connector-curvature="0"
     id="path60"
     d="m 423.6,367.2 7.2,-20.7 h 2 l 7.2,20.7 h -3 l -1.7,-5.4 h -6.7 l -1.7,5.4 z m 8.3,-16 -2.6,8 h 5.1 z" /></g><text
   xml:space="preserve"
   style="font-style:normal;font-variant:normal;font-weight:normal;font-stretch:normal;font-size:30.29942322px;line-height:1.25;font-family:'DejaVu Sans';-inkscape-font-specification:'DejaVu Sans';letter-spacing:0px;word-spacing:0px;fill:#808080;fill-opacity:1;stroke:none;stroke-width:0.63123798"
   x="154.80319"
   y="159.76915"
   id="text854"
   inkscape:export-filename="/home/mbrickman/Desktop/facebook.png"
   inkscape:export-xdpi="96"
   inkscape:export-ydpi="96"><tspan
     sodipodi:role="line"
     id="tspan852"
     x="154.80319"
     y="159.76915"
     style="font-style:normal;font-variant:normal;font-weight:normal;font-stretch:normal;font-size:30.29942322px;font-family:'DejaVu Sans';-inkscape-font-specification:'DejaVu Sans';fill:#808080;fill-opacity:1;stroke-width:0.63123798">www.agilityplaza.com</tspan></text>

</g></g></svg>