<?xml version="1.0" encoding="UTF-8" standalone="no"?>
<!--
  ~ Copyright (c) Mike Brickman 2014-2017
  -->

<!-- Generator: Adobe Illustrator 20.1.0, SVG Export Plug-In . SVG Version: 6.00 Build 0)  -->

<svg
   xmlns:dc="http://purl.org/dc/elements/1.1/"
   xmlns:cc="http://creativecommons.org/ns#"
   xmlns:rdf="http://www.w3.org/1999/02/22-rdf-syntax-ns#"
   xmlns:svg="http://www.w3.org/2000/svg"
   xmlns="http://www.w3.org/2000/svg"
   xmlns:sodipodi="http://sodipodi.sourceforge.net/DTD/sodipodi-0.dtd"
   xmlns:inkscape="http://www.inkscape.org/namespaces/inkscape"
   version="1.1"
   x="0px"
   y="0px"
   viewBox="0 0 30.000002 30"
   enable-background="new 0 0 595.3 524.5"
   xml:space="preserve"
   id="svg2"
   inkscape:version="0.91 r13725"
   sodipodi:docname="logo_small.svg"
   width="30"
   height="30"><metadata
     id="metadata99"><rdf:RDF><cc:Work
         rdf:about=""><dc:format>image/svg+xml</dc:format><dc:type
           rdf:resource="http://purl.org/dc/dcmitype/StillImage" /><dc:title /></cc:Work></rdf:RDF></metadata><defs
     id="defs97" /><sodipodi:namedview
     pagecolor="#ffffff"
     bordercolor="#666666"
     borderopacity="1"
     objecttolerance="10"
     gridtolerance="10"
     guidetolerance="10"
     inkscape:pageopacity="0"
     inkscape:pageshadow="2"
     inkscape:window-width="1159"
     inkscape:window-height="741"
     id="namedview95"
     showgrid="false"
     inkscape:zoom="19.496678"
     inkscape:cx="15.000003"
     inkscape:cy="14.999999"
     inkscape:window-x="2388"
     inkscape:window-y="245"
     inkscape:window-maximized="0"
     inkscape:current-layer="svg2" /><g
     id="Layer_1"
     transform="translate(0,-494.5)" /><g
     transform="translate(-4.7683716e-6,-1.1920924e-7)"
     id="g3215"><circle
       cx="15.000005"
       cy="15.000001"
       r="15"
       id="circle34"
       style="fill:#52bcbc" /><g
       transform="translate(0.03836025,1.6419482e-7)"
       id="g3211"><path
         style="fill:#ffffff"
         inkscape:connector-curvature="0"
         id="path83"
         d="M 15.709684,9.4577173 9.9677482,21.231911 c -0.2258065,0.419355 -0.7419355,0.612903 -1.1612903,0.419355 l 0,0 C 8.387103,21.425459 8.1935546,20.90933 8.387103,20.489975 L 14.129039,8.7157818 C 14.354845,8.296427 14.870974,8.1028786 15.290329,8.296427 l 0,0 c 0.451613,0.1935484 0.612903,0.7096774 0.419355,1.1612903 z" /><path
         style="fill:#ffffff"
         inkscape:connector-curvature="0"
         id="path85"
         d="m 15.7742,8.7480399 5.741935,11.7741931 c 0.225807,0.419355 0.03226,0.967742 -0.387096,1.161291 l 0,0 c -0.419355,0.225806 -0.967742,0.03226 -1.161291,-0.387097 L 14.225813,9.5222333 C 14.000006,9.1028786 14.193555,8.5544915 14.61291,8.3609431 l 0,0 c 0.419354,-0.2258064 0.967742,-0.032258 1.16129,0.3870968 z" /></g><path
       d="m 20.7742,12.296427 c 0.193548,-0.03226 0.387097,-0.03226 0.580645,-0.06452 -1.677419,0.06452 -3.419355,0.32258 -5.096774,0.870967 l -0.612903,0.225807 c -0.193549,0.06452 -0.419355,0.129032 -0.612904,0.225806 -0.193548,0.09677 -0.387096,0.193549 -0.580645,0.258065 -0.193548,0.09677 -0.387097,0.193548 -0.580645,0.258064 -0.709677,0.354839 -1.451613,0.67742 -2.16129,0.935484 -0.193549,0.06452 -0.548387,0.161291 -0.741936,0.225807 -1.4516127,0.483871 -3.2580644,1.032258 -4.7419353,1.354838 -0.7419355,0.161291 -1.2903226,0.419355 -1.2903226,0.419355 -0.1935484,0.06452 -0.3548388,0.161291 -0.1612904,0.161291 0.3870968,-0.03226 1.3225807,-0.193549 1.3548388,-0.129033 0,0.03226 -0.1935484,0.06452 -0.3870968,0.09677 0,0.06452 -0.5483871,0.290323 -0.7419355,0.322581 -0.1935484,0.06452 -1.3548387,0.290323 -1.5483871,0.322581 -0.2903226,0.03226 0,0.09677 0.4838709,0.16129 0.483871,0.03226 1.1290323,0.03226 1.5161291,0 0.3870968,-0.03226 0,0.09677 0.032258,0.129032 0.3870967,-0.09677 0.6129032,-0.06452 1,-0.16129 0,0 0.064516,0 0.1935484,-0.03226 0.1290322,-0.03226 0.2903225,-0.03226 0.4838709,-0.09677 0.3548388,-0.06452 0.8064517,-0.161291 1.0967742,-0.258065 0,0 0.064516,0 0.1612904,-0.06452 0.1290322,-0.03226 0.3225806,-0.09677 0.6129032,-0.16129 0.1935484,-0.06452 0.1935484,-0.06452 0.1935484,-0.09677 0,0.03226 0,0.03226 0,0.03226 0.1935484,-0.09678 0.5806452,-0.161291 0.7741934,-0.258065 0,0.03226 0,0.03226 0,0.03226 0.354839,-0.16129 0.774194,-0.258064 1.129033,-0.419355 0,0 0,0 0,0.03226 0.193548,-0.06452 0.387096,-0.129032 0.387096,-0.129032 0,0 0,0 0,0.03226 0.193549,-0.06452 0.548387,-0.225806 0.548387,-0.193548 0,0 0,0 0,-0.03226 0.193549,-0.06452 0.354839,-0.129032 0.516129,-0.225807 0.161291,-0.06452 0.322581,-0.129032 0.483871,-0.193548 0.290323,-0.129032 0.580646,-0.225806 0.83871,-0.387097 0.193549,-0.09677 0.387097,-0.16129 0.548387,-0.258064 0.09677,-0.03226 0.193549,-0.09677 0.290323,-0.129033 0.09677,-0.03226 0.193548,-0.09677 0.290322,-0.129032 0.387097,-0.16129 0.741936,-0.354839 1.161291,-0.483871 0.387097,-0.16129 0.806451,-0.32258 1.225806,-0.419355 0.193549,-0.06452 0.419355,-0.129032 0.612903,-0.193548 0.193549,-0.06452 0.419355,-0.09677 0.612904,-0.129032 0.193548,-0.03226 0.354838,-0.09678 0.16129,-0.09678 0.193548,-0.03226 0.354839,-0.06452 0.548387,-0.09677 0.387097,-0.06452 0.193548,-0.06452 0.548387,-0.129032 1.516129,-0.225806 3.032258,-0.290323 4.580645,-0.225806 1.516129,0.06452 3.096775,0.225806 4.580646,0.451612 -0.741936,-0.16129 -1.322581,-0.258064 -2.064516,-0.32258 0,-0.03226 0,-0.06452 -0.193549,-0.06452 -1.16129,-0.129033 -2.483871,-0.161291 -3.064516,-0.225807 -0.193548,-0.03226 -0.387097,-0.06452 -0.967742,-0.06452 l 0.580645,0 c 0,-0.03226 0,-0.06452 0,-0.06452 -0.387097,0 -0.806451,0 -1.258064,0 -0.451613,0 -0.870968,0.03226 -1.258065,0.06452 0,0 0,-0.03226 0,-0.06452 l -0.387097,0.03226 c -0.193548,-0.03226 0.225807,-0.09677 0.83871,-0.16129 0.290323,-0.03226 0.645161,-0.06452 0.967742,-0.06452 0.322581,-0.03226 0.645161,-0.03226 0.903226,-0.03226 0,-0.03226 0,-0.06452 0,-0.06452 0,0 -0.09677,0 -0.193549,0 -0.09677,0 -0.193548,0 -0.193548,0 l 0,-0.03226 c 1.16129,0 2.16129,0 3.322581,0.09677 -0.193549,0 -0.580645,-0.03226 -0.774194,-0.06452 0,-0.03226 0,-0.03226 -0.193548,-0.03226 0.774193,0.03226 1.741935,0.129033 2.548387,0.193549 0.193548,0 0,-0.06452 -0.580645,-0.161291 -0.580645,-0.06452 -0.967742,-0.09677 -1.548387,-0.129032 l 0,-0.03226 c 0.387096,0.03226 0.967742,0.09677 1.354838,0.09677 0.193549,0 -0.387096,-0.09677 -0.193548,-0.09677 0.193548,0.03226 0.387097,0.03226 0.580645,0.03226 -0.580645,-0.06452 -1.387097,-0.129032 -1.967742,-0.16129 -0.193548,-0.03226 -0.387097,-0.06452 -0.387097,-0.09677 -1,-0.03226 -1.774193,-0.06452 -2.387096,-0.129033 -0.09677,0 -0.387097,0 -0.741936,0 -0.322581,0.129033 -0.709677,0.161291 -1.032258,0.193549 z"
       id="path93"
       inkscape:connector-curvature="0" /></g></svg>