<?xml version="1.0" encoding="UTF-8" standalone="no"?>
<!-- Created with Inkscape (http://www.inkscape.org/) -->

<svg
   xmlns:dc="http://purl.org/dc/elements/1.1/"
   xmlns:cc="http://creativecommons.org/ns#"
   xmlns:rdf="http://www.w3.org/1999/02/22-rdf-syntax-ns#"
   xmlns:svg="http://www.w3.org/2000/svg"
   xmlns="http://www.w3.org/2000/svg"
   xmlns:sodipodi="http://sodipodi.sourceforge.net/DTD/sodipodi-0.dtd"
   xmlns:inkscape="http://www.inkscape.org/namespaces/inkscape"
   width="105mm"
   height="50mm"
   viewBox="0 0 105 50"
   version="1.1"
   id="svg8"
   inkscape:version="0.92.2 (5c3e80d, 2017-08-06)"
   sodipodi:docname="tuffley.svg">
  <defs
     id="defs2" />
  <sodipodi:namedview
     id="base"
     pagecolor="#ffffff"
     bordercolor="#666666"
     borderopacity="1.0"
     inkscape:pageopacity="0.0"
     inkscape:pageshadow="2"
     inkscape:zoom="4.1329588"
     inkscape:cx="238.69229"
     inkscape:cy="152.66998"
     inkscape:document-units="mm"
     inkscape:current-layer="layer1"
     showgrid="false"
     inkscape:window-width="1791"
     inkscape:window-height="1469"
     inkscape:window-x="782"
     inkscape:window-y="417"
     inkscape:window-maximized="0" />
  <metadata
     id="metadata5">
    <rdf:RDF>
      <cc:Work
         rdf:about="">
        <dc:format>image/svg+xml</dc:format>
        <dc:type
           rdf:resource="http://purl.org/dc/dcmitype/StillImage" />
        <dc:title></dc:title>
      </cc:Work>
    </rdf:RDF>
  </metadata>
  <g
     inkscape:label="Layer 1"
     inkscape:groupmode="layer"
     id="layer1"
     transform="translate(0,-247)">
    <g
       id="g1039"
       transform="matrix(0.78674587,0,0,0.78313865,-38.495591,202.53962)">
      <g
         transform="translate(3.3495124,-2.9554521)"
         style="fill:#ef0580;fill-opacity:1"
         id="g990">
        <text
           xml:space="preserve"
           style="font-style:normal;font-variant:normal;font-weight:normal;font-stretch:normal;font-size:13.57303905px;line-height:1.25;font-family:Arial;-inkscape-font-specification:Arial;text-align:center;letter-spacing:0px;word-spacing:0px;text-anchor:middle;fill:#ef0580;fill-opacity:1;stroke:none;stroke-width:0.84831494"
           x="124.68871"
           y="95.50531"
           id="text938"
           transform="scale(0.89945754,1.1117812)"><tspan
             sodipodi:role="line"
             id="tspan936"
             x="124.68871"
             y="95.50531"
             style="font-style:normal;font-variant:normal;font-weight:normal;font-stretch:normal;font-family:'Arial Black';-inkscape-font-specification:'Arial Black, ';fill:#ef0580;fill-opacity:1;stroke-width:0.84831494">TUFFLEY</tspan><tspan
             sodipodi:role="line"
             x="124.68871"
             y="112.52828"
             style="font-style:normal;font-variant:normal;font-weight:normal;font-stretch:normal;font-family:'Arial Black';-inkscape-font-specification:'Arial Black, ';fill:#ef0580;fill-opacity:1;stroke-width:0.84831494"
             id="tspan940" /></text>
        <text
           xml:space="preserve"
           style="font-style:normal;font-variant:normal;font-weight:normal;font-stretch:normal;font-size:13.57303905px;line-height:1.25;font-family:Arial;-inkscape-font-specification:Arial;text-align:center;letter-spacing:0px;word-spacing:0px;text-anchor:middle;fill:#ef0580;fill-opacity:1;stroke:none;stroke-width:0.84831494"
           x="125.13937"
           y="78.912895"
           id="text938-1"
           transform="scale(0.89945755,1.1117812)"><tspan
             sodipodi:role="line"
             id="tspan936-6"
             x="125.13937"
             y="91.13887"
             style="font-style:normal;font-variant:normal;font-weight:normal;font-stretch:normal;font-family:'Arial Black';-inkscape-font-specification:'Arial Black, ';fill:#ef0580;fill-opacity:1;stroke-width:0.84831494" /><tspan
             sodipodi:role="line"
             x="125.13937"
             y="108.10517"
             style="font-style:normal;font-variant:normal;font-weight:normal;font-stretch:normal;font-family:'Arial Black';-inkscape-font-specification:'Arial Black, ';fill:#ef0580;fill-opacity:1;stroke-width:0.84831494"
             id="tspan940-9">AGILITY CLUB</tspan></text>
      </g>
      <g
         style="fill:#ef0580;fill-opacity:1;stroke:none"
         id="g1022">
        <g
           id="g923"
           style="fill:#ef0580;fill-opacity:1;stroke:none">
          <path
             id="path817"
             d="m 112.82085,60.18908 c -7.19666,0.811389 -13.969998,2.716389 -20.037776,5.609167 -2.010833,0.9525 -3.633611,1.799166 -3.633611,1.869722 0,0.07056 1.728611,-0.458611 3.845278,-1.199445 13.476109,-4.656667 30.056669,-5.715 45.014449,-2.928055 2.54,0.458611 4.97417,0.917222 5.46805,1.023055 0.49389,0.105834 -0.14111,-0.211666 -1.41111,-0.740833 -2.8575,-1.128889 -7.65528,-2.398889 -11.81805,-3.139723 -3.88056,-0.670277 -13.40556,-0.9525 -17.42723,-0.493888 z"
             inkscape:connector-curvature="0"
             style="fill:#ef0580;fill-opacity:1;stroke:none;stroke-width:0.03527778" />
          <path
             id="path819"
             d="m 148.76891,65.198524 c 0,0.9525 0.17639,2.010834 0.38806,2.434167 0.21166,0.388056 0.3175,0.740834 0.24694,0.811389 -0.0705,0.105833 -1.79917,-0.141111 -3.81,-0.529167 -7.72583,-1.375833 -13.44083,-1.905 -20.28472,-1.905 -9.03111,0.03528 -15.27528,0.811389 -23.63612,2.963334 -3.668884,0.917222 -7.796385,1.869722 -9.172218,2.081389 -12.453056,1.834444 -26.952224,-0.246945 -37.288614,-5.432778 -1.728611,-0.846667 -3.104444,-1.481667 -3.104444,-1.411112 0,0.352778 5.044722,4.127501 7.231945,5.397501 4.903611,2.8575 12.7,5.291667 19.896668,6.208889 l 3.386667,0.423333 -4.233334,2.504723 c -4.656667,2.751667 -7.831667,5.044722 -12.100279,8.678334 -2.786944,2.398889 -6.985,6.985 -8.360834,9.172223 l -0.705555,1.128888 0.881944,-0.564444 c 9.630834,-6.103056 22.754168,-12.629445 30.409447,-15.09889 5.573889,-1.763889 17.039167,-3.774722 22.859997,-3.951111 l 1.23473,-0.03528 -1.41111,-0.3175 c -0.77612,-0.211667 -4.97417,-0.458611 -9.34862,-0.599722 -7.231941,-0.246945 -7.72583,-0.282222 -5.468052,-0.599722 4.339162,-0.599723 21.625282,-0.423334 26.458332,0.282222 18.23861,2.681111 32.91417,8.008056 49.38889,17.885834 l 1.41112,0.881945 -1.48167,-1.763889 c -6.06778,-7.231943 -15.41639,-13.79361 -24.97667,-17.603611 -7.16139,-2.822222 -16.47472,-4.903611 -24.69445,-5.503333 -3.66888,-0.282222 -3.59833,-0.282222 1.58751,-0.176389 11.25361,0.282222 22.33083,2.8575 32.0675,7.443611 2.2225,1.058334 4.1275,1.905001 4.26861,1.905001 0.14111,0 0.67028,-0.529167 1.19944,-1.199445 l 0.88195,-1.199444 -2.25778,-1.869723 c -1.27,-1.058333 -2.29306,-2.010833 -2.29306,-2.187222 0,-0.141111 0.42334,-0.246945 0.91723,-0.246945 0.70555,0 0.88194,-0.141111 0.70555,-0.564444 -0.10583,-0.3175 -0.21167,-0.705556 -0.21167,-0.881945 0,-0.176388 -0.24694,-0.3175 -0.52916,-0.3175 -0.28222,0 -1.37584,-0.3175 -2.43417,-0.705555 -2.25778,-0.881945 -4.7625,-2.963334 -6.42055,-5.432778 l -1.19945,-1.799167 z"
             inkscape:connector-curvature="0"
             style="fill:#ef0580;fill-opacity:1;stroke:none;stroke-width:0.03527778" />
          <path
             id="path821"
             d="m 73.345017,77.969081 c -3.245555,0.599722 -7.690556,2.786944 -10.4775,5.150556 -2.116667,1.834444 -6.173612,6.244167 -6.173612,6.773333 0,0.141111 0.846667,-0.423333 1.869723,-1.27 1.058333,-0.846666 2.751666,-2.010833 3.81,-2.610555 2.010833,-1.128889 6.632222,-2.928056 7.655278,-2.928056 0.3175,-0.03528 1.905,-1.305278 3.527778,-2.822223 1.622778,-1.552222 2.822222,-2.822222 2.645834,-2.786944 -0.141112,0 -1.446389,0.246944 -2.857501,0.493889 z"
             inkscape:connector-curvature="0"
             style="fill:#ef0580;fill-opacity:1;stroke:none;stroke-width:0.03527778" />
          <path
             id="path823"
             d="m 162.63308,82.061303 c 1.48167,0.987778 2.04611,1.516945 4.37444,4.303889 0.52917,0.635 1.23473,0.9525 2.46945,1.128889 3.98639,0.529167 5.43278,0.987778 7.54944,2.328334 l 2.18723,1.411111 -1.12889,-1.411111 c -1.83445,-2.293056 -4.90362,-4.833056 -7.47889,-6.208889 -2.36361,-1.234723 -6.985,-2.645834 -8.71361,-2.645834 -0.81139,0 -0.70556,0.141111 0.74083,1.093611 z"
             inkscape:connector-curvature="0"
             style="fill:#ef0580;fill-opacity:1;stroke:none;stroke-width:0.03527778" />
          <path
             id="path825"
             d="m 108.69335,82.378803 c -10.75972,0.881945 -20.637498,3.633612 -29.421666,8.149167 -5.573889,2.892778 -6.6675,3.810001 -2.469444,2.081389 7.655278,-3.104444 17.709445,-5.503333 27.51667,-6.561667 4.19805,-0.423333 7.54944,-0.529166 14.46389,-0.388055 9.31333,0.211666 14.07583,0.705555 21.69583,2.363611 2.82223,0.635 11.25361,3.175 13.54667,4.1275 0.28222,0.105834 0.38806,0.03528 0.28222,-0.141111 -0.38805,-0.599722 -7.97278,-4.198056 -11.32416,-5.362222 -10.51278,-3.704167 -22.7189,-5.221112 -34.29001,-4.268612 z"
             inkscape:connector-curvature="0"
             style="fill:#ef0580;fill-opacity:1;stroke:none;stroke-width:0.03527778" />
        </g>
        <path
           style="fill:#ef0580;fill-opacity:1;stroke:none;stroke-width:0.02645833;stroke-linecap:butt;stroke-linejoin:miter;stroke-miterlimit:4;stroke-dasharray:none;stroke-opacity:1"
           d="m 152.02619,62.664834 c -1.01401,4.79337 1.35359,8.093557 6.10193,6.937409 -4.02314,-0.772314 -6.14914,-6.04288 -6.10193,-6.937409 z"
           id="path1013"
           inkscape:connector-curvature="0"
           sodipodi:nodetypes="ccc" />
      </g>
    </g>
  </g>
</svg>
